<svg xmlns="http://www.w3.org/2000/svg" xmlns:xlink="http://www.w3.org/1999/xlink" width="500" zoomAndPan="magnify" viewBox="0 0 375 374.999991" height="500" preserveAspectRatio="xMidYMid meet" version="1.0"><defs><clipPath id="32c2751e72"><path d="M 13 3.660156 L 363 3.660156 L 363 171 L 13 171 Z M 13 3.660156 " clip-rule="nonzero"/></clipPath><clipPath id="a91c888811"><path d="M 180 197.878906 L 195 197.878906 L 195 329.878906 L 180 329.878906 Z M 180 197.878906 " clip-rule="nonzero"/></clipPath><clipPath id="8e66ac488c"><path d="M 114.042969 241 L 129 241 L 129 287 L 114.042969 287 Z M 114.042969 241 " clip-rule="nonzero"/></clipPath></defs><path fill="#1e1e1e" d="M 362.832031 177.8125 L 352.316406 177.8125 C 353.140625 184.371094 353.585938 191.085938 353.585938 197.839844 C 353.585938 208.4375 352.203125 219.738281 349.359375 232.382812 L 335.863281 318.789062 C 369.007812 247.78125 364.554688 191.242188 362.832031 177.8125 " fill-opacity="1" fill-rule="nonzero"/><g clip-path="url(#32c2751e72)"><path fill="#1e1e1e" d="M 351.140625 170.222656 L 362.21875 170.222656 C 360.132812 78.195312 282.808594 3.949219 187.996094 3.949219 C 93.179688 3.949219 15.863281 78.195312 13.78125 170.222656 L 24.851562 170.222656 C 38.382812 93.539062 107.910156 36.082031 187.996094 36.082031 C 268.042969 36.082031 337.566406 93.527344 351.140625 170.222656 " fill-opacity="1" fill-rule="nonzero"/></g><path fill="#1e1e1e" d="M 325.023438 204.007812 L 284.171875 367.347656 L 323.164062 342.4375 C 323.644531 342.132812 324.050781 341.722656 324.367188 341.242188 C 324.71875 340.566406 324.847656 340.167969 324.894531 339.816406 L 341.664062 232.476562 L 325.023438 204.007812 " fill-opacity="1" fill-rule="nonzero"/><path fill="#1e1e1e" d="M 296.808594 191.242188 C 294.75 190.722656 292.675781 190.464844 290.617188 190.464844 C 286.035156 190.464844 281.53125 191.742188 277.519531 194.21875 C 271.703125 197.8125 267.691406 203.472656 266.226562 210.160156 L 237.277344 341.816406 C 235.332031 350.636719 240.34375 359.382812 248.933594 362.179688 L 275.511719 370.8125 L 319.011719 196.792969 L 296.808594 191.242188 " fill-opacity="1" fill-rule="nonzero"/><path fill="#1e1e1e" d="M 109.355469 210.160156 C 107.882812 203.472656 103.871094 197.8125 98.050781 194.21875 C 92.242188 190.621094 85.390625 189.566406 78.773438 191.242188 L 56.578125 196.800781 L 100.082031 370.8125 L 126.648438 362.179688 C 135.238281 359.382812 140.25 350.636719 138.304688 341.828125 L 109.355469 210.160156 " fill-opacity="1" fill-rule="nonzero"/><path fill="#1e1e1e" d="M 33.917969 232.476562 L 50.925781 341.472656 C 50.984375 341.511719 51.039062 341.566406 51.101562 341.605469 L 91.382812 367.339844 L 50.546875 204.019531 L 33.917969 232.476562 " fill-opacity="1" fill-rule="nonzero"/><path fill="#1e1e1e" d="M 22.402344 197.839844 C 22.402344 191.085938 22.847656 184.371094 23.683594 177.8125 L 13.121094 177.8125 C 11.230469 191.328125 6.015625 249.113281 40.078125 321.160156 L 26.210938 232.335938 C 23.691406 221.089844 22.402344 209.492188 22.402344 197.839844 " fill-opacity="1" fill-rule="nonzero"/><g clip-path="url(#a91c888811)"><path fill="#1e1e1e" d="M 187.496094 197.878906 C 191.554688 197.878906 194.84375 201.167969 194.84375 205.222656 L 194.84375 322.742188 C 194.84375 326.800781 191.554688 330.089844 187.496094 330.089844 C 183.441406 330.089844 180.152344 326.800781 180.152344 322.742188 L 180.152344 205.222656 C 180.152344 201.167969 183.441406 197.878906 187.496094 197.878906 Z M 187.496094 197.878906 " fill-opacity="1" fill-rule="nonzero"/></g><g clip-path="url(#8e66ac488c)"><path fill="#1e1e1e" d="M 121.390625 241.949219 C 125.449219 241.949219 128.738281 245.238281 128.738281 249.292969 L 128.738281 278.671875 C 128.738281 282.730469 125.449219 286.019531 121.390625 286.019531 C 117.335938 286.019531 114.046875 282.730469 114.046875 278.671875 L 114.046875 249.292969 C 114.046875 245.238281 117.335938 241.949219 121.390625 241.949219 Z M 121.390625 241.949219 " fill-opacity="1" fill-rule="nonzero"/></g><path fill="#1e1e1e" d="M 150.773438 227.257812 C 150.773438 223.203125 147.484375 219.914062 143.425781 219.914062 C 139.371094 219.914062 136.082031 223.203125 136.082031 227.257812 L 136.082031 300.707031 C 136.082031 304.765625 139.371094 308.054688 143.425781 308.054688 C 147.484375 308.054688 150.773438 304.765625 150.773438 300.707031 Z M 150.773438 227.257812 " fill-opacity="1" fill-rule="nonzero"/><path fill="#1e1e1e" d="M 165.460938 234.601562 C 169.519531 234.601562 172.808594 237.890625 172.808594 241.949219 L 172.808594 286.019531 C 172.808594 290.074219 169.519531 293.363281 165.460938 293.363281 C 161.40625 293.363281 158.117188 290.074219 158.117188 286.019531 L 158.117188 241.949219 C 158.117188 237.890625 161.40625 234.601562 165.460938 234.601562 Z M 165.460938 234.601562 " fill-opacity="1" fill-rule="nonzero"/><path fill="#1e1e1e" d="M 246.257812 249.292969 C 246.257812 245.238281 249.546875 241.949219 253.601562 241.949219 C 257.660156 241.949219 260.949219 245.238281 260.949219 249.292969 L 260.949219 278.671875 C 260.949219 282.730469 257.660156 286.019531 253.601562 286.019531 C 249.546875 286.019531 246.257812 282.730469 246.257812 278.671875 Z M 246.257812 249.292969 " fill-opacity="1" fill-rule="nonzero"/><path fill="#1e1e1e" d="M 231.566406 219.914062 C 235.625 219.914062 238.914062 223.203125 238.914062 227.257812 L 238.914062 300.707031 C 238.914062 304.765625 235.625 308.054688 231.566406 308.054688 C 227.511719 308.054688 224.222656 304.765625 224.222656 300.707031 L 224.222656 227.257812 C 224.222656 223.203125 227.511719 219.914062 231.566406 219.914062 Z M 231.566406 219.914062 " fill-opacity="1" fill-rule="nonzero"/><path fill="#1e1e1e" d="M 216.878906 241.949219 C 216.878906 237.890625 213.589844 234.601562 209.53125 234.601562 C 205.476562 234.601562 202.1875 237.890625 202.1875 241.949219 L 202.1875 286.019531 C 202.1875 290.074219 205.476562 293.363281 209.53125 293.363281 C 213.589844 293.363281 216.878906 290.074219 216.878906 286.019531 Z M 216.878906 241.949219 " fill-opacity="1" fill-rule="nonzero"/></svg>